<?xml version="1.0" encoding="UTF-8"?>
<svg version="1.1" xmlns="http://www.w3.org/2000/svg" width="250" height="250">
<path d="M0 0 C1.82597408 -0.00542754 3.65194378 -0.01255373 5.47790527 -0.02124023 C10.41395489 -0.03940268 15.34966831 -0.03243504 20.28572345 -0.01972389 C25.46556133 -0.0095579 30.64537149 -0.01899968 35.82521057 -0.02526855 C44.52301165 -0.03253515 53.22067664 -0.02298388 61.91845703 -0.00390625 C71.95463966 0.0178537 81.99049709 0.01081345 92.02667183 -0.01121187 C100.6630955 -0.02940222 109.29942165 -0.03190624 117.93585831 -0.0214572 C123.08538485 -0.01524135 128.23475888 -0.01433376 133.38427544 -0.02760315 C138.22799414 -0.03921378 143.07129637 -0.03104119 147.9149704 -0.00802612 C149.68577701 -0.00276647 151.45661907 -0.00420541 153.22741127 -0.01307678 C167.76537023 -0.07915786 179.11057801 1.8626034 189.77954102 12.40039062 C197.44806439 20.68629512 201.19679349 29.85868182 201.13398743 41.23945618 C201.13781297 41.98567157 201.14163852 42.73188697 201.14557999 43.50071496 C201.15584425 45.98468053 201.15193043 48.46841211 201.14794922 50.95239258 C201.15229939 52.74013481 201.15748355 54.52787518 201.16343689 56.31561279 C201.17680662 61.1607776 201.17740772 66.00586429 201.17487359 70.85104394 C201.17380232 74.90154399 201.17869135 78.95202835 201.18347901 83.00252503 C201.19456761 92.56248636 201.19501551 102.1224084 201.18896484 111.68237305 C201.18292744 121.5304374 201.19523165 131.3783588 201.21653491 141.22639877 C201.23417502 149.69372666 201.24014839 158.16100915 201.23689717 166.62835473 C201.23508771 171.68006954 201.2376866 176.73168241 201.25161171 181.78338051 C201.26422433 186.53669238 201.26221352 191.2897822 201.24920082 196.04309082 C201.24684281 197.78207157 201.24954178 199.52106812 201.25782394 201.26003075 C201.32009672 215.35791262 199.92122981 227.62157697 190.05688477 238.52539062 C178.70331898 249.12205203 166.21846508 250.82527138 151.28735352 250.74462891 C149.81821195 250.74406402 148.34906983 250.74438286 146.87992859 250.74551392 C142.91147055 250.74608541 138.94313454 250.73436414 134.97470474 250.720366 C130.82005693 250.70782466 126.66540601 250.70668547 122.51074219 250.70431519 C114.65217862 250.6981104 106.79367101 250.68171317 98.93513203 250.66161621 C89.98470146 250.63922599 81.03426815 250.62825593 72.08381653 250.61822534 C53.68027636 250.59734602 35.27678819 250.56218958 16.87329102 250.51757812 C16.69496281 236.46910273 16.52954466 222.42052437 16.37851524 208.37172794 C16.30800264 201.84677347 16.23352397 195.32191674 16.1496582 188.79711914 C16.06872021 182.48833151 15.99862243 176.1795043 15.93571854 169.87051201 C15.90999889 167.4758105 15.88051759 165.08114604 15.84702682 162.6865406 C15.4581198 134.47766987 17.29350916 110.36698407 37.50610352 88.86132812 C51.24007464 75.26333691 68.54538202 67.59910783 87.93579102 67.20507812 C101.04422039 67.33359214 111.33907615 71.42568507 120.86938477 80.39648438 C130.73036221 90.89365391 133.49655144 103.08915749 133.18579102 117.06054688 C132.64810891 127.71337366 127.43080733 136.36038861 120.49829102 144.20507812 C110.11236532 153.3545841 101.39107261 156.93049461 87.35375977 157.04882812 C82.36131246 156.28679352 79.15987715 154.15908457 76.06079102 150.20507812 C74.04398514 145.64072798 73.68135665 141.88511051 74.37329102 136.95507812 C76.34957883 132.42608523 78.56039291 129.9417243 82.87329102 127.51757812 C85.93533476 126.58600397 88.99421153 125.89345012 92.12329102 125.22460938 C95.51606196 124.35232025 97.51850619 123.10784143 99.87329102 120.51757812 C102.38663607 116.25386776 102.56157444 112.36074316 101.87329102 107.51757812 C99.79801146 103.44113614 98.12771014 101.15846229 93.87329102 99.51757812 C82.24470997 98.14575649 72.3845129 101.0680246 62.93579102 107.83398438 C52.61437351 116.25923237 48.41774065 126.79660347 47.02563477 139.86914062 C46.52129167 151.9475112 50.96570298 162.52499546 58.87329102 171.51757812 C66.1757435 179.39309302 75.98567963 183.95340234 86.71313477 184.72070312 C107.1987671 185.03070008 125.15427391 177.67047886 140.12329102 163.83007812 C155.10007388 147.87173021 160.61411983 128.21587229 160.17797852 106.77539062 C159.45904015 90.23980815 151.673839 72.25842688 139.87329102 60.51757812 C132.26184341 53.81630362 124.303585 48.38641668 114.87329102 44.51757812 C113.88844727 44.10507812 112.90360352 43.69257812 111.88891602 43.26757812 C95.29048036 37.43788365 75.37550321 39.02525808 58.87329102 44.51757812 C58.23246582 44.72656738 57.59164062 44.93555664 56.93139648 45.15087891 C31.88731901 53.57887069 11.97974117 71.77108559 -0.12011719 95.04370117 C-11.38144361 117.8528558 -11.28100759 141.86280287 -11.22436523 166.72851562 C-11.22249688 169.15231293 -11.22107495 171.57611062 -11.22007751 173.99990845 C-11.21628518 180.33566354 -11.20648344 186.67139519 -11.19537354 193.00714111 C-11.18508831 199.48978356 -11.18056475 205.97242985 -11.17553711 212.45507812 C-11.16485779 225.14258804 -11.14801755 237.83008183 -11.12670898 250.51757812 C-12.55102144 250.38492765 -13.97464679 250.24488816 -15.39794922 250.10180664 C-16.58722267 249.98604027 -16.58722267 249.98604027 -17.80052185 249.86793518 C-26.08159585 248.62068699 -34.88199306 242.94523907 -40.44311523 236.83398438 C-46.35294101 228.70283197 -49.27361907 220.95737248 -49.28060913 211.01806641 C-49.28499138 210.25949121 -49.28937364 209.500916 -49.29388869 208.71935368 C-49.30725108 206.17553011 -49.31344986 203.63174117 -49.31958008 201.08789062 C-49.32748325 199.26442815 -49.33575234 197.44096722 -49.34436035 195.61750793 C-49.3705621 189.62587982 -49.38588914 183.63424479 -49.40014648 177.64257812 C-49.40550749 175.57748409 -49.410885 173.51239009 -49.41627884 171.44729614 C-49.43790751 162.85336411 -49.45664192 154.25943393 -49.46790123 145.66548157 C-49.48412478 133.36455498 -49.51726412 121.06394505 -49.57430208 108.76313782 C-49.61306789 100.10646567 -49.63254196 91.44987798 -49.63782179 82.79312134 C-49.64146698 77.62717528 -49.65339923 72.4615671 -49.68592453 67.29571533 C-49.71612097 62.42991032 -49.72227585 57.56464557 -49.71054077 52.69876671 C-49.71032098 50.92029488 -49.71854695 49.14179714 -49.73619461 47.36341286 C-49.86227961 33.91729579 -48.0169749 23.1708007 -39.06811523 12.48242188 C-35.79226923 9.16702843 -32.26687721 6.64458206 -28.12670898 4.51757812 C-27.22886389 4.02642643 -27.22886389 4.02642643 -26.31288052 3.52535248 C-17.84833843 -0.52070596 -9.15278647 -0.04579656 0 0 Z " fill="#17A497" transform="translate(49.126708984375,-0.517578125)"/>
</svg>
