<?xml version="1.0" encoding="UTF-8"?>
<svg version="1.1" xmlns="http://www.w3.org/2000/svg" width="1280" height="1372">
<path d="M0 0 C362.34 0 724.68 0 1098 0 C1098 30.03 1098 60.06 1098 91 C1128.03 91 1158.06 91 1189 91 C1189 483.37 1189 875.74 1189 1280 C1158.97 1280 1128.94 1280 1098 1280 C1098 1310.03 1098 1340.06 1098 1371 C735.66 1371 373.32 1371 0 1371 C0 1340.97 0 1310.94 0 1280 C-30.03 1280 -60.06 1280 -91 1280 C-91 887.63 -91 495.26 -91 91 C-60.97 91 -30.94 91 0 91 C0 60.97 0 30.94 0 0 Z " fill="#FFFFFF" transform="translate(91,0)"/>
<path d="M0 0 C362.34 0 724.68 0 1098 0 C1098 30.03 1098 60.06 1098 91 C1128.03 91 1158.06 91 1189 91 C1189 483.37 1189 875.74 1189 1280 C1158.97 1280 1128.94 1280 1098 1280 C1098 1310.03 1098 1340.06 1098 1371 C735.66 1371 373.32 1371 0 1371 C0 1340.97 0 1310.94 0 1280 C-30.03 1280 -60.06 1280 -91 1280 C-91 887.63 -91 495.26 -91 91 C-60.97 91 -30.94 91 0 91 C0 60.97 0 30.94 0 0 Z M92 91 C92 121.36 92 151.72 92 183 C61.64 183 31.28 183 0 183 C0 454.59 0 726.18 0 1006 C30.36 1006 60.72 1006 92 1006 C92 1036.03 92 1066.06 92 1097 C393.62 1097 695.24 1097 1006 1097 C1006 1066.97 1006 1036.94 1006 1006 C1036.36 1006 1066.72 1006 1098 1006 C1098 734.41 1098 462.82 1098 183 C1067.64 183 1037.28 183 1006 183 C1006 152.64 1006 122.28 1006 91 C704.38 91 402.76 91 92 91 Z " fill="#655561" transform="translate(91,0)"/>
<path d="M0 0 C30.03 0 60.06 0 91 0 C91 362.34 91 724.68 91 1098 C121.36 1098 151.72 1098 183 1098 C183 1128.03 183 1158.06 183 1189 C484.62 1189 786.24 1189 1097 1189 C1097 1219.03 1097 1249.06 1097 1280 C765.02 1280 433.04 1280 91 1280 C91 1249.97 91 1219.94 91 1189 C60.97 1189 30.94 1189 0 1189 C0 796.63 0 404.26 0 0 Z " fill="#655561" transform="translate(0,91)"/>
<path d="M0 0 C30.36 0 60.72 0 92 0 C92 30.03 92 60.06 92 91 C393.62 91 695.24 91 1006 91 C1006 60.97 1006 30.94 1006 0 C1036.36 0 1066.72 0 1098 0 C1098 60.39 1098 120.78 1098 183 C1067.64 183 1037.28 183 1006 183 C1006 213.03 1006 243.06 1006 274 C704.38 274 402.76 274 92 274 C92 243.97 92 213.94 92 183 C61.64 183 31.28 183 0 183 C0 122.61 0 62.22 0 0 Z " fill="#7D929E" transform="translate(91,1006)"/>
<path d="M0 0 C30.03 0 60.06 0 91 0 C91 120.45 91 240.9 91 365 C60.97 365 30.94 365 0 365 C0 244.55 0 124.1 0 0 Z " fill="#655561" transform="translate(823,366)"/>
<path d="M0 0 C30.03 0 60.06 0 91 0 C91 120.45 91 240.9 91 365 C60.97 365 30.94 365 0 365 C0 244.55 0 124.1 0 0 Z " fill="#655561" transform="translate(366,366)"/>
<path d="M0 0 C30.36 0 60.72 0 92 0 C92 30.03 92 60.06 92 91 C61.64 91 31.28 91 0 91 C0 60.97 0 30.94 0 0 Z " fill="#6C6A76" transform="translate(1097,1280)"/>
<path d="M0 0 C30.36 0 60.72 0 92 0 C92 30.03 92 60.06 92 91 C61.64 91 31.28 91 0 91 C0 60.97 0 30.94 0 0 Z " fill="#6C6A76" transform="translate(91,1280)"/>
<path d="M0 0 C30.03 0 60.06 0 91 0 C91 30.36 91 60.72 91 92 C60.97 92 30.94 92 0 92 C0 61.64 0 31.28 0 0 Z " fill="#6C6A76" transform="translate(1189,91)"/>
<path d="M0 0 C30.03 0 60.06 0 91 0 C91 30.36 91 60.72 91 92 C60.97 92 30.94 92 0 92 C0 61.64 0 31.28 0 0 Z " fill="#6C6A76" transform="translate(0,91)"/>
<path d="M0 0 C30.36 0 60.72 0 92 0 C92 30.03 92 60.06 92 91 C61.64 91 31.28 91 0 91 C0 60.97 0 30.94 0 0 Z " fill="#6C6A76" transform="translate(1097,0)"/>
<path d="M0 0 C30.36 0 60.72 0 92 0 C92 30.03 92 60.06 92 91 C61.64 91 31.28 91 0 91 C0 60.97 0 30.94 0 0 Z " fill="#6C6A76" transform="translate(91,0)"/>
<path d="M0 0 C30.03 0 60.06 0 91 0 C91 30.03 91 60.06 91 91 C60.97 91 30.94 91 0 91 C0 60.97 0 30.94 0 0 Z " fill="#6C6A76" transform="translate(1189,1189)"/>
<path d="M0 0 C30.03 0 60.06 0 91 0 C91 30.03 91 60.06 91 91 C60.97 91 30.94 91 0 91 C0 60.97 0 30.94 0 0 Z " fill="#6C6A76" transform="translate(0,1189)"/>
</svg>
