<?xml version="1.0" encoding="UTF-8"?>
<svg version="1.1" xmlns="http://www.w3.org/2000/svg" width="1024" height="1024">
<path d="M0 0 C2.44931671 -0.0034649 4.89863185 -0.008235 7.34794378 -0.01418173 C12.6319802 -0.02402663 17.91589529 -0.02475175 23.19992638 -0.01704025 C31.0579845 -0.00560388 38.91596603 -0.01153968 46.77402379 -0.02066517 C60.81561911 -0.03639678 74.85717327 -0.03511953 88.89877243 -0.02642844 C101.18733604 -0.0188604 113.47588462 -0.01692159 125.76445007 -0.02049637 C126.5818487 -0.02072552 127.39924732 -0.02095468 128.2414156 -0.02119078 C131.56009915 -0.0221249 134.87878269 -0.02308012 138.19746622 -0.02407007 C169.28384895 -0.03323233 200.37020559 -0.02495011 231.4565843 -0.00877938 C259.03165774 0.00545579 286.60668961 0.00418184 314.1817627 -0.01016235 C345.21389036 -0.02625119 376.24599499 -0.03258236 407.27812624 -0.02332556 C410.59051291 -0.02236351 413.90289958 -0.02142499 417.21528625 -0.02049637 C418.03078818 -0.02025914 418.8462901 -0.0200219 419.6865042 -0.01977748 C431.96269596 -0.01637535 444.23887099 -0.02033664 456.51506042 -0.02793503 C470.4836628 -0.03653821 484.45221786 -0.0343144 498.42081439 -0.0180928 C506.22368865 -0.00932853 514.02646025 -0.00864383 521.82933169 -0.02003132 C527.67598994 -0.02761773 533.52255913 -0.01930278 539.3692072 -0.0051076 C541.71885658 -0.00178369 544.06851986 -0.00339925 546.41816014 -0.01073496 C564.89195736 -0.0639423 583.03113189 1.33965099 601.05236816 5.63095093 C601.94681641 5.84074585 602.84126465 6.05054077 603.76281738 6.26669312 C620.93149028 10.43773267 637.11880528 16.66527837 652.98986816 24.38095093 C653.9982373 24.86966675 653.9982373 24.86966675 655.02697754 25.36825562 C675.64195464 35.50763018 694.47838562 49.48936979 710.98986816 65.38095093 C711.61828613 65.98213745 712.2467041 66.58332397 712.89416504 67.20272827 C722.07389897 76.02922462 730.58760079 85.00663776 737.98986816 95.38095093 C738.52289551 96.12377319 739.05592285 96.86659546 739.60510254 97.63192749 C757.40919541 122.71397623 770.20371843 149.71918784 777.86486816 179.50595093 C778.27648193 181.09306885 778.27648193 181.09306885 778.69641113 182.71224976 C783.32573452 201.79777907 784.43192043 220.82023294 784.37081909 240.39108276 C784.37428399 242.84039947 784.3790541 245.28971461 784.38500082 247.73902655 C784.39484572 253.02306296 784.39557085 258.30697805 784.38785934 263.59100914 C784.37642297 271.44906726 784.38235877 279.3070488 784.39148427 287.16510655 C784.40721587 301.20670187 784.40593862 315.24825604 784.39724753 329.2898552 C784.38967949 341.5784188 784.38774068 353.86696738 784.39131546 366.15553284 C784.39154462 366.97293146 784.39177377 367.79033009 784.39200987 368.63249836 C784.39294399 371.95118191 784.39389921 375.26986545 784.39488916 378.58854898 C784.40405143 409.67493172 784.3957692 440.76128836 784.37959847 471.84766706 C784.3653633 499.42274051 784.36663725 526.99777238 784.38098145 554.57284546 C784.39707028 585.60497312 784.40340146 616.63707775 784.39414465 647.669209 C784.39318261 650.98159567 784.39224408 654.29398234 784.39131546 657.60636902 C784.39095961 658.8296219 784.39095961 658.8296219 784.39059658 660.07758696 C784.38719444 672.35377872 784.39115574 684.62995375 784.39875412 696.90614319 C784.4073573 710.87474557 784.4051335 724.84330063 784.38891189 738.81189716 C784.38014762 746.61477141 784.37946292 754.41754301 784.39085041 762.22041446 C784.39843682 768.0670727 784.39012187 773.9136419 784.37592669 779.76028997 C784.37260278 782.10993934 784.37421834 784.45960263 784.38155405 786.8092429 C784.43476139 805.28304012 783.0311681 823.42221466 778.73986816 841.44345093 C778.53007324 842.33789917 778.32027832 843.23234741 778.10412598 844.15390015 C773.93308643 861.32257304 767.70554073 877.50988804 759.98986816 893.38095093 C759.50115234 894.38932007 759.50115234 894.38932007 759.00256348 895.4180603 C748.86318891 916.0330374 734.8814493 934.86946838 718.98986816 951.38095093 C718.38868164 952.0093689 717.78749512 952.63778687 717.16809082 953.2852478 C708.34159447 962.46498173 699.36418133 970.97868355 688.98986816 978.38095093 C688.2470459 978.91397827 687.50422363 979.44700562 686.7388916 979.9961853 C661.65684286 997.80027818 634.65163125 1010.59480119 604.86486816 1018.25595093 C603.80678955 1018.53036011 602.74871094 1018.80476929 601.65856934 1019.0874939 C582.57304002 1023.71681728 563.55058615 1024.82300319 543.97973633 1024.76190186 C541.53041962 1024.76536676 539.08110448 1024.77013686 536.63179255 1024.77608359 C531.34775613 1024.78592849 526.06384104 1024.78665361 520.77980995 1024.77894211 C512.92175183 1024.76750574 505.0637703 1024.77344154 497.20571254 1024.78256703 C483.16411722 1024.79829864 469.12256305 1024.79702138 455.08096389 1024.78833029 C442.79240029 1024.78076226 430.50385171 1024.77882344 418.21528625 1024.78239822 C417.39788763 1024.78262738 416.58048901 1024.78285653 415.73832073 1024.78309263 C412.41963718 1024.78402676 409.10095364 1024.78498197 405.78227011 1024.78597193 C374.69588738 1024.79513419 343.60953074 1024.78685197 312.52315203 1024.77068123 C284.94807859 1024.75644606 257.37304671 1024.75772001 229.79797363 1024.77206421 C198.76584597 1024.78815304 167.73374134 1024.79448422 136.70161009 1024.78522742 C133.38922342 1024.78426537 130.07683675 1024.78332684 126.76445007 1024.78239822 C125.94894815 1024.78216099 125.13344623 1024.78192376 124.29323213 1024.78167934 C112.01704037 1024.7782772 99.74086534 1024.7822385 87.4646759 1024.78983688 C73.49607352 1024.79844006 59.52751847 1024.79621626 45.55892193 1024.77999465 C37.75604768 1024.77123039 29.95327608 1024.77054568 22.15040463 1024.78193317 C16.30374639 1024.78951958 10.4571772 1024.78120463 4.61052912 1024.76700945 C2.26087975 1024.76368555 -0.08878354 1024.7653011 -2.43842381 1024.77263682 C-20.91222103 1024.82584415 -39.05139557 1023.42225087 -57.07263184 1019.13095093 C-57.96708008 1018.92115601 -58.86152832 1018.71136108 -59.78308105 1018.49520874 C-76.95175395 1014.32416919 -93.13906895 1008.09662349 -109.01013184 1000.38095093 C-110.01850098 999.89223511 -110.01850098 999.89223511 -111.04724121 999.39364624 C-131.66221831 989.25427167 -150.49864929 975.27253206 -167.01013184 959.38095093 C-167.6385498 958.7797644 -168.26696777 958.17857788 -168.91442871 957.55917358 C-178.09416264 948.73267724 -186.60786446 939.75526409 -194.01013184 929.38095093 C-194.80967285 928.26671753 -194.80967285 928.26671753 -195.62536621 927.12997437 C-213.42945909 902.04792562 -226.2239821 875.04271401 -233.88513184 845.25595093 C-234.15954102 844.19787231 -234.4339502 843.1397937 -234.7166748 842.0496521 C-239.34599819 822.96412278 -240.4521841 803.94166891 -240.39108276 784.37081909 C-240.39454766 781.92150239 -240.39931777 779.47218725 -240.4052645 777.02287531 C-240.4151094 771.73883889 -240.41583452 766.4549238 -240.40812302 761.17089272 C-240.39668664 753.31283459 -240.40262245 745.45485306 -240.41174794 737.59679531 C-240.42747955 723.55519998 -240.42620229 709.51364582 -240.4175112 695.47204666 C-240.40994317 683.18348306 -240.40800435 670.89493448 -240.41157913 658.60636902 C-240.41180829 657.78897039 -240.41203744 656.97157177 -240.41227354 656.12940349 C-240.41320767 652.81071994 -240.41416288 649.49203641 -240.41515283 646.17335288 C-240.4243151 615.08697014 -240.41603287 584.0006135 -240.39986214 552.91423479 C-240.38562697 525.33916135 -240.38690092 497.76412948 -240.40124512 470.1890564 C-240.41733395 439.15692874 -240.42366513 408.12482411 -240.41440833 377.09269285 C-240.41344628 373.78030619 -240.41250775 370.46791951 -240.41157913 367.15553284 C-240.4113419 366.34003092 -240.41110467 365.524529 -240.41086025 364.6843149 C-240.40745811 352.40812314 -240.41141941 340.13194811 -240.41901779 327.85575867 C-240.42762097 313.88715629 -240.42539717 299.91860123 -240.40917556 285.9500047 C-240.4004113 278.14713044 -240.39972659 270.34435884 -240.41111408 262.5414874 C-240.41870049 256.69482916 -240.41038554 250.84825996 -240.39619036 245.00161189 C-240.39286645 242.65196251 -240.39448201 240.30229923 -240.40181772 237.95265895 C-240.45502506 219.47886174 -239.05143177 201.3396872 -234.76013184 183.31845093 C-234.55033691 182.42400269 -234.34054199 181.52955444 -234.12438965 180.60800171 C-229.9533501 163.43932881 -223.7258044 147.25201381 -216.01013184 131.38095093 C-215.52141602 130.37258179 -215.52141602 130.37258179 -215.02282715 129.34384155 C-204.88345258 108.72886445 -190.90171297 89.89243347 -175.01013184 73.38095093 C-174.40894531 72.75253296 -173.80775879 72.12411499 -173.18835449 71.47665405 C-164.36185814 62.29692012 -155.384445 53.7832183 -145.01013184 46.38095093 C-144.26730957 45.84792358 -143.5244873 45.31489624 -142.75915527 44.76571655 C-117.67710653 26.96162368 -90.67189492 14.16710066 -60.88513184 6.50595093 C-59.29801392 6.09433716 -59.29801392 6.09433716 -57.67883301 5.67440796 C-38.59330369 1.04508457 -19.57084982 -0.06110134 0 0 Z " fill="#27272F" transform="translate(240.0101318359375,-0.380950927734375)"/>
<path d="M0 0 C1 2 1 2 0.22265625 4.3828125 C-0.16019531 5.28773437 -0.54304688 6.19265625 -0.9375 7.125 C-1.31777344 8.03507812 -1.69804687 8.94515625 -2.08984375 9.8828125 C-2.39019531 10.58148438 -2.69054687 11.28015625 -3 12 C-3.99 12 -4.98 12 -6 12 C-17.90090328 24.34579686 -24.52749898 44.88199559 -29 61 C-29.19207031 61.69125977 -29.38414062 62.38251953 -29.58203125 63.09472656 C-38.32681803 96.32157861 -27.99054249 130.49718116 -11.60058594 159.47412109 C-1.16792021 177.18814219 11.47591525 193.45722323 24.56738281 209.26318359 C26.62882132 211.76234405 28.65416707 214.29045371 30.6875 216.8125 C34.52041398 221.49639122 38.55032694 225.97366978 42.64453125 230.4296875 C45.82520979 233.90047769 48.9261492 237.43464514 52 241 C52.50789062 241.57878906 53.01578125 242.15757812 53.5390625 242.75390625 C57 246.76588687 57 246.76588687 57 249 C57.99 249.33 58.98 249.66 60 250 C61.52011626 251.69660916 62.97015146 253.45678036 64.375 255.25 C67.39582927 259.09091694 70.51659586 262.57509578 74 266 C75.86445333 267.99163664 77.71890311 269.98933386 79.5625 272 C80.61972319 273.14980255 81.67701695 274.29954022 82.734375 275.44921875 C83.27255859 276.03493652 83.81074219 276.6206543 84.36523438 277.22412109 C85.97414204 278.97190998 87.58770984 280.71525693 89.203125 282.45703125 C93.92439163 287.5499063 98.61730631 292.65644471 103.16015625 297.91015625 C105.56670226 300.64370638 108.03306703 303.32110702 110.5 306 C114.14487031 309.95930563 117.74260365 313.9512804 121.265625 318.01953125 C123.27264538 320.31133155 125.32402851 322.55996752 127.375 324.8125 C130.50422827 328.27530082 133.50500349 331.80679003 136.4375 335.4375 C139.51336588 339.24087503 142.68753166 342.90082652 146 346.5 C150.41511354 351.30786903 154.56654482 356.27409325 158.66308594 361.35400391 C160.77735964 363.95707792 162.92085419 366.53585708 165.05981445 369.11865234 C171.83907151 377.31211622 178.49633598 385.58627932 185 394 C185.49822266 394.64372559 185.99644531 395.28745117 186.50976562 395.95068359 C194.59901214 406.41986098 202.5322723 417.00076898 210.31982422 427.69628906 C211.40599009 429.18554526 212.49590972 430.67207415 213.59033203 432.15527344 C235.30716771 461.61187632 251.07925992 495.14524038 259.47802734 530.79541016 C259.9921578 532.96687788 260.53536058 535.12949612 261.08203125 537.29296875 C272.15373279 582.30528558 269.33576291 631.77121139 256 676 C255.69642578 677.01223633 255.39285156 678.02447266 255.08007812 679.06738281 C244.1227871 714.72818408 225.76979481 750.43013928 200.08203125 777.73828125 C197.72446382 780.29931604 195.55426288 782.97349362 193.375 785.6875 C188.03442747 792.26834414 182.22765827 797.91712452 175.796875 803.421875 C173.98031867 804.96801194 173.98031867 804.96801194 172.390625 806.703125 C171 808 171 808 169 808 C169.254496 806.51793505 169.52911762 805.03931385 169.8125 803.5625 C170.03873047 802.32693359 170.03873047 802.32693359 170.26953125 801.06640625 C170.51058594 800.38449219 170.75164062 799.70257812 171 799 C171.99 798.67 172.98 798.34 174 798 C174.9232794 796.03258054 174.9232794 796.03258054 175.4921875 793.6015625 C175.73936523 792.69567383 175.98654297 791.78978516 176.24121094 790.85644531 C176.49161133 789.91381836 176.74201172 788.97119141 177 788 C177.51864707 786.23556397 178.04203583 784.47251436 178.5703125 782.7109375 C179.08924195 780.93249585 179.60746931 779.15384919 180.125 777.375 C180.38925781 776.48554687 180.65351562 775.59609375 180.92578125 774.6796875 C186.87630496 754.1398087 185.75754573 730.47174204 180 710 C179.77989258 709.19288574 179.55978516 708.38577148 179.33300781 707.55419922 C172.41864993 682.91034768 159.78679765 660.39550902 146 639 C145.5452832 638.28956543 145.09056641 637.57913086 144.62207031 636.84716797 C137.82586191 626.27673929 130.41913187 616.13794417 123 606 C122.41637695 605.19949219 121.83275391 604.39898438 121.23144531 603.57421875 C114.14788944 593.8609557 106.94604159 584.27188341 99.46875 574.85888672 C96.62293178 571.25714804 93.81449061 567.62623135 91 564 C83.5972451 554.47358604 76.18684585 544.95477959 68.62548828 535.5534668 C63.26900372 528.89228692 58.03458215 522.15076598 52.86254883 515.34545898 C48.75953476 509.95967761 44.55837255 504.66110511 40.31298828 499.38720703 C35.86369329 493.85250233 31.52770457 488.23631743 27.21777344 482.59277344 C25.15155297 479.890283 23.07516847 477.19562125 21 474.5 C20.15882256 473.40627431 19.31767663 472.31252438 18.4765625 471.21875 C16.88933413 469.1552294 15.30058583 467.09290994 13.7109375 465.03125 C11.64488977 462.35022485 9.58153565 459.66719162 7.52099609 456.98193359 C6.41772741 455.54431961 5.31380042 454.10721075 4.20947266 452.67041016 C-3.94881986 442.04799707 -11.98166493 431.35730352 -19.78125 420.46875 C-22.59234324 416.54983676 -25.4539098 412.67037809 -28.328125 408.79760742 C-39.78313984 393.35357043 -50.38811226 377.66667706 -60 361 C-60.38285156 360.33645508 -60.76570313 359.67291016 -61.16015625 358.98925781 C-71.0466674 341.65138171 -78.16183079 323.04239284 -84 304 C-84.23702637 303.23091309 -84.47405273 302.46182617 -84.71826172 301.66943359 C-88.38157369 289.61266594 -90.84903393 277.40721082 -93 265 C-93.2165625 263.78183594 -93.433125 262.56367188 -93.65625 261.30859375 C-96.00573191 247.22897792 -96.23779106 232.99100588 -96.25 218.75 C-96.25100708 217.92461731 -96.25201416 217.09923462 -96.25305176 216.24884033 C-96.23124213 189.60196022 -92.89077274 163.49802643 -85 138 C-84.68160156 136.9378125 -84.36320312 135.875625 -84.03515625 134.78125 C-83.04750382 131.51287407 -82.02669368 128.25630457 -81 125 C-80.65453125 123.86304688 -80.3090625 122.72609375 -79.953125 121.5546875 C-70.42012759 91.32333271 -53.9922062 62.81027206 -34.51220703 37.93408203 C-33.51138354 36.65404915 -32.51743514 35.36860822 -31.53076172 34.07763672 C-22.05838784 21.68971957 -11.17587397 10.84938776 0 0 Z " fill="#FB8D7C" transform="translate(428,106)"/>
<path d="M0 0 C0.33 0 0.66 0 1 0 C1.0500591 4.62238043 1.08602567 9.24459733 1.10986328 13.8671875 C1.11981813 15.43427281 1.1333869 17.00134007 1.15087891 18.56835938 C1.25261869 27.92841908 0.99199056 36.79686888 -1 46 C-0.01 46.495 -0.01 46.495 1 47 C-10.08851495 82.80839979 -29.1836743 117.70408251 -55 145 C-56.36104241 146.53559989 -57.71565484 148.07693295 -59.0625 149.625 C-59.63097656 150.27726563 -60.19945312 150.92953125 -60.78515625 151.6015625 C-61.38650391 152.29378906 -61.38650391 152.29378906 -62 153 C-62 148.77528337 -59.58033608 146.97254535 -56.875 144 C-45.69766239 131.33381202 -35.66315673 117.5057508 -27 103 C-26.60361328 102.33742188 -26.20722656 101.67484375 -25.79882812 100.9921875 C-16.40465193 85.10562433 -8.0486116 68.09606698 -4 50 C-3.70351563 48.74574219 -3.40703125 47.49148438 -3.1015625 46.19921875 C-0.68804635 34.83220561 -0.75314421 23.49052301 -0.93457031 11.9296875 C-0.95358398 10.67414062 -0.97259766 9.41859375 -0.9921875 8.125 C-1.01651855 6.99320313 -1.04084961 5.86140625 -1.06591797 4.6953125 C-1 2 -1 2 0 0 Z " fill="#F8E491" transform="translate(681,741)"/>
<path d="M0 0 C6.10600869 4.29359832 11.38272552 9.10173068 16.62890625 14.3984375 C17.42223862 15.19222809 18.21557098 15.98601868 19.03294373 16.80386353 C20.70004222 18.4739665 22.36472652 20.14648249 24.02709961 21.82128906 C26.5533627 24.36579671 29.08752397 26.90222276 31.62304688 29.4375 C33.25047197 31.06984209 34.8774404 32.70263962 36.50390625 34.3359375 C37.25201065 35.08515472 38.00011505 35.83437195 38.77088928 36.60629272 C42.84157453 40.71332978 46.75492931 44.90598819 50.52482605 49.29138184 C52.54000882 51.62546446 54.64718427 53.86991141 56.75 56.125 C62.07651743 61.96227938 66.93187605 68.11769388 71.75 74.37695312 C73.5525214 76.71741451 75.37080741 79.04553128 77.1875 81.375 C78.12537819 82.58303982 79.06305076 83.79123955 80 85 C79.67 85.66 79.34 86.32 79 87 C74.25243226 81.33794175 69.51202684 75.67864213 64.9375 69.875 C61.50756609 65.55992185 57.88222394 61.46170543 54.171875 57.38671875 C50.29287177 53.12400117 46.45033148 48.83424276 42.875 44.3125 C40.74057728 41.68004531 38.40848296 39.38705296 36 37 C34.8878082 35.88424241 33.77653911 34.76756458 32.66601562 33.65014648 C29.33068922 30.29700031 25.99229723 26.9469244 22.65283203 23.59790039 C21.21671522 22.15673486 19.78149443 20.7146759 18.34716797 19.27172852 C16.26506831 17.17747096 14.17973038 15.08648507 12.09375 12.99609375 C11.45715454 12.35433701 10.82055908 11.71258026 10.16467285 11.05137634 C7.54085312 8.42722857 4.98026397 5.98449569 2.05664062 3.68774414 C1.37794922 3.13078857 0.69925781 2.57383301 0 2 C0 1.34 0 0.68 0 0 Z " fill="#FEB985" transform="translate(559,557)"/>
<path d="M0 0 C4.07598489 1.35866163 5.20659325 4.07947218 7.375 7.5625 C12.5357289 15.58018206 18.38824185 22.87483007 24.49414062 30.18554688 C25.86263155 31.83448081 27.21011755 33.49718526 28.546875 35.171875 C33.05805192 40.80306826 37.77009724 46.02660473 43 51 C42.01 51.33 41.02 51.66 40 52 C33.44981949 45.72855057 27.60537352 39.12310755 22 32 C21.54850586 31.43071777 21.09701172 30.86143555 20.63183594 30.27490234 C19.2270898 28.50086727 17.83078414 26.72054689 16.4375 24.9375 C15.99543213 24.37708008 15.55336426 23.81666016 15.09790039 23.23925781 C12 19.23202348 12 19.23202348 12 17 C11.34 17 10.68 17 10 17 C8.85498047 15.54711914 8.85498047 15.54711914 7.6171875 13.53515625 C6.95009766 12.45911133 6.95009766 12.45911133 6.26953125 11.36132812 C5.80933594 10.60271484 5.34914063 9.84410156 4.875 9.0625 C4.17310547 7.93038086 4.17310547 7.93038086 3.45703125 6.77539062 C0 1.15645499 0 1.15645499 0 0 Z " fill="#FA6379" transform="translate(362,362)"/>
<path d="M0 0 C4.47448209 1.53679642 6.6101025 5.13029122 9.25 8.8125 C10.31518977 10.26781824 11.38166377 11.72219713 12.44921875 13.17578125 C13.01946777 13.95518066 13.5897168 14.73458008 14.17724609 15.53759766 C16.7408464 19.00082732 19.37289038 22.40972908 22.00244141 25.82299805 C27.61080368 33.11094451 33.14069532 40.43746382 38.375 48 C39.04414429 48.9600293 39.04414429 48.9600293 39.72680664 49.93945312 C41.93598355 53.18045331 43.71992917 56.28638793 45 60 C40.84503768 56.11601348 37.70091082 51.93693287 34.5 47.25 C28.27385161 38.28200786 21.68654409 29.62738693 15 21 C0 1.59706471 0 1.59706471 0 0 Z " fill="#D4DCB9" transform="translate(521,671)"/>
<path d="M0 0 C0.9299664 2.49579821 1.16139532 3.60977337 0.12646484 6.11206055 C-0.34065918 6.86269775 -0.8077832 7.61333496 -1.2890625 8.38671875 C-1.81177734 9.23411621 -2.33449219 10.08151367 -2.87304688 10.95458984 C-3.45119141 11.8564502 -4.02933594 12.75831055 -4.625 13.6875 C-5.51155273 15.09056396 -5.51155273 15.09056396 -6.41601562 16.52197266 C-28.16562268 50.44374845 -28.16562268 50.44374845 -41 59 C-39.38651209 55.2083034 -36.96199208 52.51456794 -34.25 49.4375 C-21.19572661 34.31750994 -9.31431388 17.69251582 0 0 Z " fill="#F1E6AC" transform="translate(659,835)"/>
<path d="M0 0 C10.81433424 8.6514674 19.38114162 19.46316563 27.76611328 30.39306641 C29.5606707 32.73018096 31.37492841 35.05184487 33.1875 37.375 C34.12537819 38.58303982 35.06305076 39.79123955 36 41 C35.505 41.99 35.505 41.99 35 43 C30.25243226 37.33794175 25.51202684 31.67864213 20.9375 25.875 C16.83862822 20.71835486 12.43691607 15.86552693 8 11 C6.66105597 9.52591022 5.3272268 8.04714838 4 6.5625 C3.443125 5.94503906 2.88625 5.32757812 2.3125 4.69140625 C1 3 1 3 0 0 Z " fill="#FECC93" transform="translate(603,601)"/>
<path d="M0 0 C1 2 1 2 0.22265625 4.3828125 C-0.35162109 5.74019531 -0.35162109 5.74019531 -0.9375 7.125 C-1.31777344 8.03507812 -1.69804687 8.94515625 -2.08984375 9.8828125 C-2.39019531 10.58148438 -2.69054687 11.28015625 -3 12 C-3.99 12 -4.98 12 -6 12 C-8.18777466 13.9375006 -8.18777466 13.9375006 -10 16 C-10 15.01 -10 14.02 -10 13 C-13.96 16.96 -17.92 20.92 -22 25 C-22 22 -22 22 -19.98046875 19.63989258 C-19.05878906 18.73392334 -18.13710938 17.8279541 -17.1875 16.89453125 C-16.69918701 16.4104631 -16.21087402 15.92639496 -15.70776367 15.42765808 C-14.14540174 13.8820986 -12.57293673 12.34728893 -11 10.8125 C-9.93942238 9.76696718 -8.87951771 8.72075127 -7.8203125 7.67382812 C-5.22130566 5.10791098 -2.6131361 2.55153533 0 0 Z " fill="#E30D6F" transform="translate(428,106)"/>
<path d="M0 0 C4.20598611 3.96630675 7.59095895 8.27818882 11 12.9375 C12.01924069 14.3227878 13.04005401 15.70692001 14.0625 17.08984375 C14.55105469 17.75097168 15.03960937 18.41209961 15.54296875 19.09326172 C16.93175114 20.9106864 18.38202303 22.64673755 19.875 24.37890625 C22 27 22 27 22 29 C18.40135784 27.53562604 16.71493524 25.67978438 14.43359375 22.5703125 C13.78326172 21.69246094 13.13292969 20.81460937 12.46289062 19.91015625 C11.79451172 18.99105469 11.12613281 18.07195312 10.4375 17.125 C9.76525391 16.21363281 9.09300781 15.30226563 8.40039062 14.36328125 C7.14793764 12.66432318 5.89879006 10.9629198 4.65405273 9.25830078 C3.56816723 7.77572648 2.445676 6.31915152 1.28540039 4.89404297 C0 3 0 3 0 0 Z " fill="#DD358D" transform="translate(428,285)"/>
<path d="M0 0 C7 7 14 14 21 21 C16.90020781 20.48280092 14.93057809 19.4413833 12.01171875 16.54296875 C11.30595703 15.84236328 10.60019531 15.14175781 9.87304688 14.41992188 C9.15181641 13.68322266 8.43058594 12.94652344 7.6875 12.1875 C6.94693359 11.46240234 6.20636719 10.73730469 5.44335938 9.99023438 C4.74404297 9.28576172 4.04472656 8.58128906 3.32421875 7.85546875 C2.68572998 7.21246826 2.04724121 6.56946777 1.3894043 5.90698242 C0 4 0 4 0 0 Z " fill="#FC7479" transform="translate(405,414)"/>
<path d="M0 0 C6.88377963 5.76316434 13.42546859 11.89013472 20 18 C19.01 18.33 18.02 18.66 17 19 C14.54112319 16.70891588 12.08299232 14.41703299 9.625 12.125 C8.92632812 11.47402344 8.22765625 10.82304687 7.5078125 10.15234375 C6.8375 9.52714844 6.1671875 8.90195312 5.4765625 8.2578125 C4.85861816 7.6817627 4.24067383 7.10571289 3.60400391 6.51220703 C2.38345858 5.36151331 1.18613383 4.18613383 0 3 C0 2.01 0 1.02 0 0 Z " fill="#FC7672" transform="translate(426,435)"/>
<path d="M0 0 C6.71468432 3.03581496 11.92416139 8.78316588 17 14 C17.763125 14.763125 18.52625 15.52625 19.3125 16.3125 C19.869375 16.869375 20.42625 17.42625 21 18 C20.67 18.66 20.34 19.32 20 20 C19.24074219 19.30132813 18.48148438 18.60265625 17.69921875 17.8828125 C16.69540947 16.96343578 15.69149785 16.04417079 14.6875 15.125 C14.18798828 14.66480469 13.68847656 14.20460938 13.17382812 13.73046875 C10.85790957 11.61393392 8.61710426 9.74473617 6 8 C6 7.34 6 6.68 6 6 C5.38125 5.7525 4.7625 5.505 4.125 5.25 C1.64931313 3.79371361 1.04874998 2.62187494 0 0 Z " fill="#FE8668" transform="translate(497,499)"/>
<path d="M0 0 C3.19021723 1.36484921 4.87244878 2.76086744 6.91015625 5.5546875 C7.42513672 6.25207031 7.94011719 6.94945312 8.47070312 7.66796875 C8.99599609 8.39628906 9.52128906 9.12460937 10.0625 9.875 C10.59166016 10.59558594 11.12082031 11.31617188 11.66601562 12.05859375 C12.65483806 13.40597288 13.64034099 14.75579936 14.62133789 16.10888672 C16.01186467 18.06418997 16.01186467 18.06418997 17.73608398 20.05126953 C18.15317627 20.69435059 18.57026855 21.33743164 19 22 C18.67 22.99 18.34 23.98 18 25 C15.93559136 22.3139614 13.87383022 19.62590155 11.8125 16.9375 C11.23435547 16.18533203 10.65621094 15.43316406 10.06054688 14.65820312 C0 1.52833686 0 1.52833686 0 0 Z " fill="#C5C9AF" transform="translate(521,671)"/>
<path d="M0 0 C0.33 0.99 0.66 1.98 1 3 C0.43152344 3.6290625 -0.13695312 4.258125 -0.72265625 4.90625 C-5.5271682 10.23211968 -10.29600848 15.58511587 -15 21 C-15 17.57653717 -14.64870777 17.23006878 -12.48046875 14.78515625 C-11.95259766 14.18123047 -11.42472656 13.57730469 -10.88085938 12.95507812 C-10.32205078 12.33052734 -9.76324219 11.70597656 -9.1875 11.0625 C-8.09661511 9.82513586 -7.00674234 8.58687856 -5.91796875 7.34765625 C-5.4079834 6.76902832 -4.89799805 6.19040039 -4.37255859 5.59423828 C-2.82216681 3.79344527 -1.38111008 1.93355411 0 0 Z " fill="#F5F2D2" transform="translate(634,873)"/>
<path d="M0 0 C4.25209792 4.12324647 8.13635705 8.51282966 12 13 C11.01 13.495 11.01 13.495 10 14 C10 13.34 10 12.68 10 12 C9.40703125 11.74089844 8.8140625 11.48179687 8.203125 11.21484375 C5.84141859 9.91255529 4.49113554 8.60701522 2.75 6.5625 C2.22921875 5.96566406 1.7084375 5.36882812 1.171875 4.75390625 C0 3 0 3 0 0 Z " fill="#D64087" transform="translate(462,328)"/>
<path d="M0 0 C0.33 0.66 0.66 1.32 1 2 C-1.97 6.29 -4.94 10.58 -8 15 C-8.33 14.01 -8.66 13.02 -9 12 C-7.59166619 9.8037049 -6.18346343 7.83930111 -4.5625 5.8125 C-4.12873047 5.25369141 -3.69496094 4.69488281 -3.24804688 4.11914062 C-2.17453547 2.73891168 -1.0884306 1.36849461 0 0 Z " fill="#F2EABE" transform="translate(644,860)"/>
<path d="M0 0 C3.25548753 3.02295271 5.68977058 6.20462309 8 10 C8 10.66 8 11.32 8 12 C4.52999689 10.8433323 4.15298541 10.14273284 2.3125 7.125 C1.87550781 6.42632812 1.43851562 5.72765625 0.98828125 5.0078125 C0 3 0 3 0 0 Z " fill="#E43289" transform="translate(420,273)"/>
<path d="M0 0 C3.99452176 1.36955032 6.92159754 3.0926199 10 6 C10.640625 8.1328125 10.640625 8.1328125 11 10 C9.72390677 9.09066991 8.45434447 8.17217147 7.1875 7.25 C6.47980469 6.73953125 5.77210938 6.2290625 5.04296875 5.703125 C2.97022309 3.97517642 1.52624146 2.21473524 0 0 Z " fill="#FE916E" transform="translate(507,509)"/>
<path d="M0 0 C1.1055189 0.93590504 2.20935453 1.87379858 3.3125 2.8125 C3.92738281 3.33457031 4.54226563 3.85664063 5.17578125 4.39453125 C6.85424679 5.87172469 8.43882034 7.40039131 10 9 C8.35 8.67 6.7 8.34 5 8 C5 7.34 5 6.68 5 6 C4.360625 5.7525 3.72125 5.505 3.0625 5.25 C1 4 1 4 0.37109375 1.921875 C0.24863281 1.28765625 0.12617188 0.6534375 0 0 Z " fill="#FD8169" transform="translate(482,485)"/>
<path d="M0 0 C0.66 0 1.32 0 2 0 C1.745504 1.48206495 1.47088238 2.96068615 1.1875 4.4375 C1.03667969 5.26121094 0.88585937 6.08492187 0.73046875 6.93359375 C0.48941406 7.61550781 0.24835937 8.29742188 0 9 C-0.99 9.33 -1.98 9.66 -3 10 C-2.69201674 8.51988629 -2.378482 7.04092675 -2.0625 5.5625 C-1.88847656 4.73878906 -1.71445312 3.91507813 -1.53515625 3.06640625 C-1 1 -1 1 0 0 Z " fill="#D0DCCE" transform="translate(600,904)"/>
<path d="M0 0 C3.72940389 1.24313463 4.84656811 2.76985216 7 6 C6.67 6.99 6.34 7.98 6 9 C4.99712471 7.68969568 3.99777175 6.37669473 3 5.0625 C2.443125 4.33160156 1.88625 3.60070312 1.3125 2.84765625 C0 1 0 1 0 0 Z " fill="#BABEAC" transform="translate(514,662)"/>
<path d="M0 0 C3.71162994 1.85581497 5.01775064 2.55714584 7 6 C6.67 6.99 6.34 7.98 6 9 C4.02 6.03 2.04 3.06 0 0 Z " fill="#BDD0B5" transform="translate(533,687)"/>
<path d="M0 0 C2.64752004 2.57784846 4.94432065 4.91648098 7 8 C4.13792848 6.71700242 1.9754912 5.469364 0 3 C0 2.01 0 1.02 0 0 Z " fill="#DC3D8A" transform="translate(450,314)"/>
</svg>
