<?xml version="1.0" standalone="no"?>
<!DOCTYPE svg PUBLIC "-//W3C//DTD SVG 20010904//EN"
 "http://www.w3.org/TR/2001/REC-SVG-20010904/DTD/svg10.dtd">
<svg version="1.0" xmlns="http://www.w3.org/2000/svg"
 width="400.000000pt" height="400.000000pt" viewBox="0 0 400.000000 400.000000"
 preserveAspectRatio="xMidYMid meet">

<g transform="translate(0.000000,400.000000) scale(0.100000,-0.100000)"
fill="#000000" stroke="none">
<path d="M2255 3190 c-3 -5 -1 -10 4 -10 6 0 11 5 11 10 0 6 -2 10 -4 10 -3 0
-8 -4 -11 -10z"/>
<path d="M2338 3165 c-26 -19 -52 -35 -57 -35 -6 0 -14 -6 -18 -13 -4 -8 -15
-16 -24 -19 -17 -7 -35 -56 -23 -67 3 -3 11 3 18 13 19 33 69 76 87 76 7 0 26
10 43 23 17 13 39 26 49 30 9 3 17 11 17 17 0 21 -47 8 -92 -25z"/>
<path d="M2207 3150 c-3 -11 -1 -20 4 -20 4 0 13 9 19 20 8 16 8 20 -3 20 -8
0 -17 -9 -20 -20z"/>
<path d="M2454 3145 c-4 -8 -23 -23 -43 -32 -20 -9 -40 -23 -44 -30 -4 -7 -14
-13 -22 -13 -15 0 -32 -46 -21 -57 3 -3 15 6 26 20 11 14 31 29 43 33 32 10
97 63 97 80 0 19 -29 18 -36 -1z"/>
<path d="M2545 3117 c-16 -12 -34 -28 -38 -34 -4 -7 -15 -13 -22 -13 -8 0 -15
-4 -15 -10 0 -18 33 -10 72 16 21 15 38 35 38 45 0 23 2 23 -35 -4z"/>
<path d="M2584 3036 c-117 -88 -121 -94 -190 -276 -46 -121 -122 -170 -264
-169 -48 0 -102 6 -125 14 -51 19 -80 19 -113 1 -15 -8 -35 -17 -45 -20 -35
-11 -6 -28 36 -21 40 7 163 -16 277 -51 89 -27 115 -23 166 26 58 58 95 120
115 195 23 82 62 171 88 199 12 13 48 36 80 52 67 33 89 58 70 80 -18 22 -32
17 -95 -30z"/>
<path d="M2380 2981 c0 -5 -3 -18 -6 -28 -5 -16 -4 -16 10 1 18 23 20 36 6 36
-5 0 -10 -4 -10 -9z"/>
<path d="M2258 2933 c-15 -28 -32 -54 -37 -57 -15 -10 -41 -66 -30 -66 21 0
79 47 89 71 6 15 10 44 8 65 l-3 39 -27 -52z"/>
<path d="M2613 2920 c-3 -11 -12 -20 -19 -20 -8 0 -14 -4 -14 -10 0 -10 27 -3
48 13 15 12 16 37 1 37 -6 0 -13 -9 -16 -20z"/>
<path d="M2314 2878 c-23 -51 -56 -87 -109 -119 -37 -22 -50 -24 -170 -24
-119 0 -137 -2 -210 -29 -55 -21 -103 -48 -155 -89 -79 -62 -140 -121 -140
-135 0 -24 20 -14 108 55 53 41 103 78 112 81 8 3 29 15 45 28 17 12 48 25 70
29 61 11 174 6 213 -11 73 -30 134 -9 188 63 16 21 32 39 36 41 18 8 51 77 50
104 -1 50 -17 52 -38 6z"/>
<path d="M1499 2872 c-14 -12 -20 -25 -16 -35 9 -23 24 -21 32 3 3 11 13 20
21 20 8 0 14 7 14 15 0 20 -23 19 -51 -3z"/>
<path d="M1661 2861 c-14 -4 -26 -12 -29 -19 -6 -19 45 -15 52 4 8 21 6 22
-23 15z"/>
<path d="M1545 2812 c-22 -9 -48 -25 -58 -37 -34 -38 -60 -115 -39 -115 4 0
25 23 47 50 22 28 59 62 82 77 68 43 48 59 -32 25z"/>
<path d="M1815 2820 c-94 -9 -154 -41 -251 -135 -44 -42 -98 -90 -121 -106
-39 -27 -53 -55 -37 -71 3 -4 24 3 46 15 37 20 60 43 148 147 19 22 51 51 70
62 19 12 37 25 40 28 9 12 64 22 140 26 41 2 83 4 93 4 24 2 21 17 -5 25 -40
11 -52 12 -123 5z"/>
<path d="M2512 2673 c-11 -15 -34 -57 -52 -93 -40 -80 -66 -110 -98 -110 -14
0 -39 -9 -58 -20 -37 -23 -130 -50 -173 -50 -16 0 -63 11 -105 25 -101 33
-205 34 -256 4 -63 -38 -143 -118 -187 -186 -25 -39 -39 -49 -109 -72 -72 -25
-160 -27 -231 -6 -42 13 -62 28 -119 90 -58 64 -76 77 -128 95 -81 27 -117 26
-146 -5 -21 -22 -21 -25 -6 -31 9 -4 33 -4 52 -1 20 3 59 2 88 -3 43 -8 58
-17 93 -57 24 -27 45 -55 48 -64 17 -51 143 -97 289 -104 122 -7 145 8 187
118 12 31 24 57 28 57 3 0 31 23 61 51 30 27 80 63 110 78 53 27 58 27 115 15
33 -7 103 -27 155 -44 84 -29 107 -32 198 -32 166 2 207 33 242 184 11 51 29
105 40 119 28 39 29 63 4 67 -15 2 -28 -6 -42 -25z"/>
<path d="M2743 2593 c-39 -5 -72 -45 -98 -119 -25 -72 -94 -143 -185 -192 -41
-22 -87 -42 -101 -46 -34 -8 -251 25 -359 54 -48 13 -168 -11 -214 -41 -38
-27 -124 -117 -131 -139 -3 -9 -25 -26 -50 -38 -25 -12 -45 -25 -45 -29 0 -17
-62 -35 -98 -29 -20 3 -66 8 -102 12 -117 11 -219 56 -313 137 -65 55 -117 78
-162 70 -43 -9 -105 -52 -105 -74 0 -23 -3 -23 50 -4 23 8 53 15 65 15 26 0
115 -40 162 -73 85 -58 130 -80 215 -105 170 -49 285 -27 376 71 23 26 42 51
42 56 0 5 34 30 75 56 122 76 244 84 324 21 111 -89 156 -105 289 -106 100 0
137 16 216 94 67 65 106 141 116 223 7 55 14 71 54 119 43 53 51 76 23 72 -7
0 -27 -3 -44 -5z"/>
<path d="M2939 2525 c-34 -19 -88 -93 -123 -167 -15 -32 -45 -81 -67 -110 -21
-29 -39 -58 -39 -64 0 -14 -66 -75 -145 -134 -95 -71 -95 -71 -177 -60 -40 5
-74 7 -76 5 -2 -2 23 -13 55 -25 47 -17 69 -20 118 -15 71 9 90 18 169 79 59
46 112 121 137 196 25 73 173 213 255 240 59 20 38 56 -37 65 -29 4 -53 0 -70
-10z"/>
<path d="M1725 2501 c-3 -6 -15 -11 -26 -11 -11 0 -22 -7 -25 -15 -4 -8 -12
-15 -19 -15 -7 0 -15 -7 -19 -15 -3 -8 -10 -15 -16 -15 -6 0 -16 -5 -23 -10
-51 -45 -122 -79 -174 -85 -56 -6 -189 -62 -177 -74 10 -11 199 -10 226 0 15
6 38 28 50 47 31 50 69 84 109 98 9 3 22 17 28 30 6 13 16 24 23 24 17 1 63
39 55 46 -3 3 -8 1 -12 -5z"/>
<path d="M1496 2461 c-3 -5 -18 -12 -33 -16 -54 -13 -123 -85 -82 -85 11 0 46
17 63 31 6 5 26 20 44 35 31 25 41 44 23 44 -6 0 -12 -4 -15 -9z"/>
<path d="M3110 2429 c-37 -15 -100 -58 -143 -98 -36 -33 -58 -67 -112 -171
-11 -21 -38 -52 -60 -70 -45 -35 -59 -55 -50 -70 8 -13 112 66 120 91 4 10 17
31 29 47 13 15 29 40 37 56 16 34 102 83 163 93 45 7 78 51 74 98 -3 33 -19
40 -58 24z"/>
<path d="M3015 2169 c-62 -42 -125 -102 -125 -118 0 -6 -13 -24 -30 -42 -40
-44 -23 -60 24 -24 20 15 36 30 36 34 0 4 23 30 52 59 41 41 58 52 84 52 37 0
57 20 52 52 -5 35 -27 32 -93 -13z"/>
<path d="M1888 2126 c-22 -16 -23 -26 -3 -26 8 0 15 6 15 13 0 9 12 12 38 9
28 -2 33 -1 22 7 -20 14 -51 13 -72 -3z"/>
<path d="M2020 2110 c0 -10 79 -35 86 -27 4 4 -69 37 -81 37 -3 0 -5 -4 -5
-10z"/>
<path d="M894 2087 c-67 -39 -104 -63 -104 -68 0 -14 31 -18 57 -8 34 13 75 6
175 -29 61 -21 80 -24 89 -15 10 10 1 18 -44 37 -31 14 -69 38 -84 54 -35 36
-62 45 -89 29z"/>
<path d="M1790 2038 c0 -19 2 -20 10 -8 13 19 13 30 0 30 -5 0 -10 -10 -10
-22z"/>
<path d="M2180 2020 c38 -21 70 -26 70 -11 0 11 -55 31 -84 31 -17 -1 -14 -5
14 -20z"/>
<path d="M1966 2011 c13 -12 104 -35 110 -28 3 3 -3 10 -13 15 -23 12 -108 23
-97 13z"/>
<path d="M1740 1985 c0 -8 -9 -15 -19 -15 -18 0 -37 -27 -26 -38 2 -3 7 3 11
12 3 9 12 16 20 16 7 0 18 9 24 20 7 14 7 20 0 20 -5 0 -10 -7 -10 -15z"/>
<path d="M1856 1950 c-27 -28 -54 -50 -61 -50 -7 0 -37 -23 -66 -51 -63 -59
-120 -100 -169 -121 -105 -45 -218 -55 -282 -24 -20 10 -45 16 -55 14 -24 -5
-19 -45 10 -76 20 -21 29 -23 102 -21 44 2 86 0 92 -4 15 -10 72 5 153 38 53
22 80 43 142 109 43 44 80 89 83 99 8 22 47 62 69 70 9 4 16 11 16 17 0 6 11
15 25 20 29 11 34 30 8 30 -10 0 -40 -23 -67 -50z"/>
<path d="M2962 1942 c-71 -46 -90 -72 -53 -72 10 0 29 8 42 19 13 10 38 26 56
35 18 9 37 25 43 35 19 37 -16 30 -88 -17z"/>
<path d="M2106 1935 c21 -16 44 -19 44 -6 0 10 -24 21 -48 21 -13 0 -12 -3 4
-15z"/>
<path d="M895 1920 c3 -5 10 -10 16 -10 5 0 9 5 9 10 0 6 -7 10 -16 10 -8 0
-12 -4 -9 -10z"/>
<path d="M1617 1914 c-41 -22 -117 -35 -234 -41 -80 -3 -108 -1 -133 12 -29
15 -50 13 -50 -4 0 -4 34 -25 76 -45 68 -35 81 -38 138 -34 63 4 164 44 229
92 47 34 28 49 -26 20z"/>
<path d="M2170 1893 c0 -1 17 -11 38 -21 20 -11 53 -28 72 -38 42 -21 113 -24
158 -5 55 23 40 38 -50 50 -81 11 -218 20 -218 14z"/>
<path d="M1930 1832 c-14 -9 -26 -20 -28 -24 -2 -5 -12 -8 -21 -8 -19 0 -51
-31 -70 -67 -6 -13 -18 -23 -26 -23 -14 0 -31 -37 -21 -48 3 -3 12 1 19 9 6 8
31 27 55 42 23 15 42 32 42 37 0 17 62 42 89 37 37 -8 164 -53 198 -70 16 -8
55 -20 88 -26 32 -6 78 -21 103 -32 29 -15 47 -18 54 -11 32 32 -101 116 -208
131 -35 5 -88 21 -116 35 -72 34 -126 41 -158 18z"/>
<path d="M1900 1666 c-46 -21 -137 -85 -163 -115 -13 -16 -39 -38 -56 -49 -16
-10 -48 -38 -70 -63 -43 -50 -133 -99 -180 -99 -37 0 -104 21 -193 62 -73 33
-118 33 -118 -1 0 -21 71 -61 107 -61 12 0 54 -13 95 -29 99 -40 121 -44 174
-36 33 5 52 15 72 38 15 17 51 56 80 86 28 30 52 58 52 63 0 4 32 30 71 58
l72 50 141 -4 c78 -2 154 -9 171 -15 62 -25 285 -44 303 -26 3 3 -2 13 -11 23
-17 16 -19 16 -48 -1 -39 -22 -57 -22 -127 4 -31 11 -94 31 -140 43 -46 13
-97 33 -114 46 -40 29 -86 40 -118 26z"/>
<path d="M1725 1649 c-4 -6 -5 -13 -2 -16 7 -7 27 6 27 18 0 12 -17 12 -25 -2z"/>
<path d="M1629 1571 c-7 -17 -20 -32 -29 -35 -8 -3 -31 -15 -50 -26 -44 -27
-111 -21 -184 14 -60 29 -173 59 -192 52 -8 -3 -14 -14 -14 -25 0 -20 40 -42
175 -98 85 -35 121 -42 160 -32 41 12 151 116 160 152 10 37 -10 35 -26 -2z"/>
<path d="M2420 1448 c-36 -13 -69 -17 -97 -14 -31 4 -47 1 -64 -13 l-23 -18
24 -13 c54 -29 250 23 250 67 0 17 -23 15 -90 -9z"/>
<path d="M2646 1402 c-60 -31 -125 -66 -145 -76 -20 -10 -70 -27 -112 -36 -88
-20 -99 -25 -99 -47 0 -35 148 3 250 63 47 28 105 50 165 63 111 25 131 31
150 46 20 15 20 15 1 30 -38 29 -94 18 -210 -43z"/>
<path d="M1692 1305 c-24 -40 -109 -87 -190 -104 -107 -22 -234 -10 -277 29
-43 37 -128 52 -139 23 -11 -28 13 -40 149 -73 152 -38 349 -57 403 -39 47 15
99 64 107 99 6 29 -12 100 -26 100 -4 0 -16 -16 -27 -35z"/>
<path d="M2635 1283 c-33 -14 -85 -40 -115 -58 -79 -48 -159 -69 -237 -61 -48
5 -70 3 -94 -10 -17 -9 -27 -19 -23 -24 5 -5 65 -10 134 -12 141 -3 145 -2
283 85 l78 49 72 -6 c40 -4 81 -9 92 -12 26 -6 47 9 40 28 -7 17 -99 48 -141
47 -16 0 -56 -12 -89 -26z"/>
<path d="M2694 1130 c-59 -9 -97 -27 -88 -41 4 -7 20 -8 38 -4 17 3 67 12 111
18 71 12 78 14 58 25 -24 13 -42 13 -119 2z"/>
<path d="M2546 1083 c-11 -11 -6 -23 8 -23 8 0 17 4 20 9 7 10 -19 23 -28 14z"/>
<path d="M2500 1050 c0 -5 4 -10 9 -10 6 0 13 5 16 10 3 6 -1 10 -9 10 -9 0
-16 -4 -16 -10z"/>
<path d="M2665 1027 c-33 -10 -73 -24 -90 -32 -51 -22 -113 -35 -265 -54 l-55
-7 37 -17 c29 -13 48 -15 100 -8 34 5 79 14 98 20 19 5 67 17 105 26 39 10 86
26 107 36 27 15 42 17 61 10 30 -12 57 9 35 26 -23 19 -72 19 -133 0z"/>
<path d="M2170 1026 c0 -10 9 -16 24 -16 13 0 39 -2 57 -6 34 -5 34 -5 9 9
-14 8 -40 18 -57 22 -26 5 -33 3 -33 -9z"/>
<path d="M2665 920 c-16 -4 -47 -14 -69 -24 -21 -9 -53 -16 -70 -16 -29 -1
-30 -1 -12 -15 38 -29 255 -5 248 26 -7 31 -41 41 -97 29z"/>
</g>
</svg>
